<svg xmlns="http://www.w3.org/2000/svg" viewBox="0 0 31.63 28.67"><defs><style>.cls-1{fill:#ead651;}</style></defs><title>cartico</title><g id="Capa_2" data-name="Capa 2"><g id="Capa_1-2" data-name="Capa 1"><circle class="cls-1" cx="13.84" cy="26.2" r="0.49"/><circle class="cls-1" cx="25.21" cy="26.2" r="0.49"/><path class="cls-1" d="M11.62,19.28h17a.49.49,0,0,0,.49-.41L31.63,5a.5.5,0,0,0-.49-.58H8.5L8.06,2.19A1.49,1.49,0,0,0,6.6,1H5.93V.49A.49.49,0,0,0,5.44,0h-4a1.49,1.49,0,0,0,0,3h4a.5.5,0,0,0,.49-.5V2H6.6a.5.5,0,0,1,.49.4C8,7.23,9.35,14,10.26,18.59a3.21,3.21,0,0,0,1.36,6.12h.24a2.51,2.51,0,0,0-.49,1.49,2.47,2.47,0,1,0,4.45-1.49h7.41a2.47,2.47,0,1,0,3.95,0h.5a1.48,1.48,0,1,0,0-3H9.41A2.22,2.22,0,0,1,11.62,19.28ZM4.94,2H1.48a.5.5,0,0,1,0-1H4.94Zm17.8,7.91v3.95H16.81V9.89Zm-5.93-1V5.44h5.93V8.9ZM29,13.84H23.72V9.89h6Zm-6.29,1v3.46H16.81V14.83Zm-6.92-1H10.34L9.56,9.89h6.26Zm-4.61,4.45-.68-3.46h5.29v3.46Zm17,0H23.72V14.83h5.13ZM29.92,8.9h-6.2V5.44h6.83ZM15.82,5.44V8.9H9.37L8.69,5.44Zm-.5,20.76a1.48,1.48,0,1,1-1.48-1.49A1.48,1.48,0,0,1,15.32,26.2Zm11.37,0a1.49,1.49,0,1,1-1.48-1.49A1.48,1.48,0,0,1,26.69,26.2Zm1-3.46a.49.49,0,0,1,.35.84.5.5,0,0,1-.35.14H11.62a2.23,2.23,0,0,1-1.85-1Z"/></g></g></svg>