<svg xmlns="http://www.w3.org/2000/svg" viewBox="0 0 37.1 53.96"><defs><style>.cls-1{fill:#f7f7f8;}</style></defs><title>estrellaico</title><g id="Capa_2" data-name="Capa 2"><g id="Capa_1-2" data-name="Capa 1"><path class="cls-1" d="M34.57,0h-32A2.53,2.53,0,0,0,0,2.53V51.86a2.1,2.1,0,0,0,3.39,1.65L18,42a.81.81,0,0,1,1,0L33.7,53.51a2.1,2.1,0,0,0,3.4-1.65V2.53A2.53,2.53,0,0,0,34.57,0Zm.84,51.86a.41.41,0,0,1-.66.32L20.12,40.63a2.52,2.52,0,0,0-3.14,0L2.35,52.18a.41.41,0,0,1-.66-.32V2.53a.83.83,0,0,1,.84-.84h32a.84.84,0,0,1,.84.84V51.86Z"/><path class="cls-1" d="M28.61,15.8,22.7,15,20.06,9.59a1.68,1.68,0,0,0-3,0L14.39,15l-5.91.85a1.69,1.69,0,0,0-.93,2.88l4.27,4.17-1,5.89a1.68,1.68,0,0,0,2.44,1.77l5.29-2.78,5.28,2.78a1.69,1.69,0,0,0,2.45-1.77l-1-5.89,4.28-4.17a1.69,1.69,0,0,0-.94-2.88ZM23.78,22a.87.87,0,0,0-.25.75L24.62,29c-6.17-3.24-5.78-3.08-6.07-3.08s.09-.16-6.07,3.08l1.08-6.32a.84.84,0,0,0-.24-.75l-4.6-4.48,6.35-.92a.83.83,0,0,0,.64-.46l2.84-5.76,2.84,5.76a.83.83,0,0,0,.63.46l6.35.92Z"/></g></g></svg>