<svg xmlns="http://www.w3.org/2000/svg" viewBox="0 0 53.58 53.58"><defs><style>.cls-1{fill:#fff;}</style></defs><title>preguntaico</title><g id="Capa_2" data-name="Capa 2"><g id="Capa_1-2" data-name="Capa 1"><path class="cls-1" d="M45.73,7.85a26.79,26.79,0,1,0,0,37.88A26.77,26.77,0,0,0,45.73,7.85ZM26.79,51.9A25.11,25.11,0,1,1,51.9,26.79,25.13,25.13,0,0,1,26.79,51.9Z"/><path class="cls-1" d="M26.84,8.32A11.76,11.76,0,0,0,15.12,20a2.56,2.56,0,0,0,2.43,2.57A2.51,2.51,0,0,0,20.15,20a6.69,6.69,0,1,1,9.63,6,9.57,9.57,0,0,0-5.45,8.63v.42a2.51,2.51,0,1,0,5,0v-.42A4.6,4.6,0,0,1,32,30.57,11.72,11.72,0,0,0,26.84,8.32Zm8.48,17.11a10.06,10.06,0,0,1-4.07,3.64,6.25,6.25,0,0,0-3.57,5.62v.42a.84.84,0,0,1-.84.83.83.83,0,0,1-.83-.83v-.42a7.88,7.88,0,0,1,4.5-7.12,8.37,8.37,0,1,0-12-7.53A.84.84,0,1,1,16.8,20a10,10,0,1,1,18.52,5.44Z"/><path class="cls-1" d="M26.84,39.29a3.35,3.35,0,1,0,3.35,3.35A3.36,3.36,0,0,0,26.84,39.29Zm0,5a1.67,1.67,0,1,1,1.68-1.67A1.67,1.67,0,0,1,26.84,44.31Z"/></g></g></svg>