<svg xmlns="http://www.w3.org/2000/svg" viewBox="0 0 15.23 15.23"><defs><style>.cls-1{fill:#ead651;}</style></defs><title>twtico</title><g id="Capa_2" data-name="Capa 2"><g id="Capa_1-2" data-name="Capa 1"><path class="cls-1" d="M7.62,0a7.62,7.62,0,1,0,7.61,7.62A7.62,7.62,0,0,0,7.62,0Zm1,11.92A2.34,2.34,0,0,1,6,9.62V6.81H5.14V5.7a2.65,2.65,0,0,0,1.7-2.32.07.07,0,0,1,.06-.07H8.16v2.2H9.88v1.3H8.15V9.49a.76.76,0,0,0,.83.85,2.34,2.34,0,0,0,.7-.15l.41,1.22A2.29,2.29,0,0,1,8.6,11.92Z"/></g></g></svg>