<svg xmlns="http://www.w3.org/2000/svg" viewBox="0 0 15.23 15.23"><defs><style>.cls-1{fill:#ead651;}</style></defs><title>instagramico</title><g id="Capa_2" data-name="Capa 2"><g id="Capa_1-2" data-name="Capa 1"><path class="cls-1" d="M9.07,7.62A1.46,1.46,0,1,1,7.62,6.16,1.45,1.45,0,0,1,9.07,7.62Z"/><path class="cls-1" d="M11,5a1.54,1.54,0,0,0-.33-.51,1.38,1.38,0,0,0-.5-.32,2.51,2.51,0,0,0-.82-.15c-.46,0-.6,0-1.76,0s-1.31,0-1.77,0A2.37,2.37,0,0,0,5,4.21,1.35,1.35,0,0,0,4.21,5a2.37,2.37,0,0,0-.15.81c0,.46,0,.6,0,1.77s0,1.3,0,1.76a2.51,2.51,0,0,0,.15.82,1.38,1.38,0,0,0,.32.5A1.54,1.54,0,0,0,5,11a2.37,2.37,0,0,0,.81.15c.46,0,.6,0,1.77,0s1.3,0,1.76,0A2.51,2.51,0,0,0,10.2,11,1.47,1.47,0,0,0,11,10.2a2.51,2.51,0,0,0,.15-.82c0-.46,0-.6,0-1.76s0-1.31,0-1.77A2.37,2.37,0,0,0,11,5ZM7.62,9.86A2.25,2.25,0,1,1,9.86,7.62,2.24,2.24,0,0,1,7.62,9.86Zm2.33-4a.52.52,0,0,1-.52-.53A.52.52,0,0,1,10,4.76a.52.52,0,0,1,.53.52A.53.53,0,0,1,10,5.81Z"/><path class="cls-1" d="M7.62,0a7.62,7.62,0,1,0,7.61,7.62A7.62,7.62,0,0,0,7.62,0ZM12,9.42a3.12,3.12,0,0,1-.2,1.06,2.24,2.24,0,0,1-1.28,1.28,3.12,3.12,0,0,1-1.06.2c-.47,0-.62,0-1.8,0s-1.34,0-1.81,0a3.17,3.17,0,0,1-1.06-.2,2.18,2.18,0,0,1-.77-.5,2.11,2.11,0,0,1-.51-.78,3.12,3.12,0,0,1-.2-1.06c0-.47,0-.62,0-1.8s0-1.34,0-1.81a3.17,3.17,0,0,1,.2-1.06A2.08,2.08,0,0,1,4,4a2.08,2.08,0,0,1,.77-.51,3.17,3.17,0,0,1,1.06-.2c.47,0,.62,0,1.81,0s1.33,0,1.8,0a3.12,3.12,0,0,1,1.06.2,2.11,2.11,0,0,1,.78.51,2.18,2.18,0,0,1,.5.77A3.17,3.17,0,0,1,12,5.81c0,.47,0,.62,0,1.81S12,9,12,9.42Z"/></g></g></svg>