<svg xmlns="http://www.w3.org/2000/svg" viewBox="0 0 15.23 15.23"><defs><style>.cls-1{fill:#ead651;}</style></defs><title>linkedinico</title><g id="Capa_2" data-name="Capa 2"><g id="Capa_1-2" data-name="Capa 1"><path class="cls-1" d="M7.62,0a7.62,7.62,0,1,0,7.61,7.62A7.62,7.62,0,0,0,7.62,0ZM5.4,11.51H3.55V5.93H5.4ZM4.48,5.17h0a1,1,0,0,1-1-1,1,1,0,0,1,1.05-1,1,1,0,1,1,0,1.93Zm7.61,6.34H10.24v-3c0-.75-.27-1.26-.94-1.26a1,1,0,0,0-1,.68,1.18,1.18,0,0,0-.07.45v3.11H6.43s0-5,0-5.58H8.28v.79A1.85,1.85,0,0,1,10,5.8c1.22,0,2.13.8,2.13,2.51Z"/></g></g></svg>