<svg xmlns="http://www.w3.org/2000/svg" viewBox="0 0 88.04 28.18"><defs><style>.cls-1{fill:#e9d552;}.cls-2{fill:#f7f7f6;}</style></defs><title>logoico</title><g id="Capa_2" data-name="Capa 2"><g id="Capa_1-2" data-name="Capa 1"><path class="cls-1" d="M70.45,19.38A231.46,231.46,0,0,1,46,20.62c-16.24,0-30.77-1.52-40.48-3.9l-.26-.07,0,0A.87.87,0,0,1,5,16.39l-.83-2.05c1,.27,2.07.53,3.19.78s2,.42,3.07.62c.72.14,1.46.27,2.21.39A207.55,207.55,0,0,0,46,18.58,231.78,231.78,0,0,0,69.82,17.4v.22a1.76,1.76,0,0,0,0,.33,3,3,0,0,0,.09.43c0,.12.08.24.13.36A3.18,3.18,0,0,0,70.45,19.38Z"/><path class="cls-2" d="M70.52,3.88A4.94,4.94,0,0,0,70,2.61,5.33,5.33,0,0,0,66.84.19,5.29,5.29,0,0,0,64,.19a5.53,5.53,0,0,0-1.25.53,5.27,5.27,0,0,0-1.9,1.89,5,5,0,0,0-.54,1.27,5.45,5.45,0,0,0-.19,1.41,5.51,5.51,0,0,0,.19,1.41A5,5,0,0,0,60.88,8h0A5,5,0,0,0,61.71,9a4.88,4.88,0,0,0,.59.52,5.66,5.66,0,0,0,.48.31,5.53,5.53,0,0,0,1.25.53,5.29,5.29,0,0,0,2.81,0,5.34,5.34,0,0,0,1.25-.53c.16-.1.32-.2.47-.31a4.86,4.86,0,0,0,.6-.52A4.93,4.93,0,0,0,70,8h0a5,5,0,0,0,.53-1.26,5.1,5.1,0,0,0,.19-1.41A5.05,5.05,0,0,0,70.52,3.88Zm-3.91,4.3a2.71,2.71,0,0,1-1.17.26,2.86,2.86,0,0,1-1.21-.26,1.94,1.94,0,0,1-.4-.22,3,3,0,0,1-.55-.45,3.14,3.14,0,0,1-.63-1,3.35,3.35,0,0,1-.23-1.22,3.39,3.39,0,0,1,.23-1.22,3.08,3.08,0,0,1,.63-1,3,3,0,0,1,1-.71,2.86,2.86,0,0,1,1.21-.26,2.71,2.71,0,0,1,1.17.26,3.11,3.11,0,0,1,.94.71,3,3,0,0,1,.61,1,3.39,3.39,0,0,1,.23,1.22,3.35,3.35,0,0,1-.23,1.22,3.09,3.09,0,0,1-.61,1A2.93,2.93,0,0,1,67,8,2.24,2.24,0,0,1,66.61,8.18Z"/><path class="cls-2" d="M87.49,2.75a4.14,4.14,0,0,0-.74-1.43,3.47,3.47,0,0,0-1.23-1A3.89,3.89,0,0,0,83.83,0a4.86,4.86,0,0,0-1.09.12,4.29,4.29,0,0,0-1,.35A3.58,3.58,0,0,0,81,1a2.7,2.7,0,0,0-.53.7A4.55,4.55,0,0,0,79.92,1a2.9,2.9,0,0,0-.68-.53A3.29,3.29,0,0,0,78.4.13,4.86,4.86,0,0,0,77.35,0a4.26,4.26,0,0,0-1.06.11,3.83,3.83,0,0,0-.79.32,2.46,2.46,0,0,0-.59.46,4.16,4.16,0,0,0-.43.53L74.39.66a.89.89,0,0,0-.16-.34.39.39,0,0,0-.35-.16h-.82a1.16,1.16,0,0,0-.53.11.37.37,0,0,0-.21.37v9.44a.47.47,0,0,0,.13.36.54.54,0,0,0,.4.13H74.2a.45.45,0,0,0,.35-.14.42.42,0,0,0,.14-.34V4.37a2,2,0,0,1,.21-.9,2.06,2.06,0,0,1,.5-.66,2.17,2.17,0,0,1,.68-.41,2.14,2.14,0,0,1,1.69.05,1.94,1.94,0,0,1,.65.51,2.64,2.64,0,0,1,.37.73,3.32,3.32,0,0,1,.11.83V10a.64.64,0,0,0,.11.43.55.55,0,0,0,.44.13H80.7c.35,0,.53-.2.53-.59V4.52a2.58,2.58,0,0,1,.16-.94,2.18,2.18,0,0,1,.44-.72,1.69,1.69,0,0,1,.66-.45,2.13,2.13,0,0,1,.84-.16,2.06,2.06,0,0,1,.93.19,1.89,1.89,0,0,1,.65.5,2.28,2.28,0,0,1,.37.73,2.63,2.63,0,0,1,.13.84V10a.59.59,0,0,0,.11.43.55.55,0,0,0,.44.13H87.2a.51.51,0,0,0,.4-.15.61.61,0,0,0,.14-.45V4.51A5.9,5.9,0,0,0,87.49,2.75Z"/><path class="cls-2" d="M26.08,3.88a5.32,5.32,0,0,0-.53-1.27,5.78,5.78,0,0,0-.83-1.07A5.63,5.63,0,0,0,23.65.72,5.42,5.42,0,0,0,22.39.19,5,5,0,0,0,21,0a5,5,0,0,0-1.4.19,5.42,5.42,0,0,0-1.26.53,5.27,5.27,0,0,0-1.9,1.89,5.32,5.32,0,0,0-.53,1.27,5.05,5.05,0,0,0-.19,1.41A5.1,5.1,0,0,0,15.9,6.7,5.42,5.42,0,0,0,16.43,8,5.32,5.32,0,0,0,17.26,9a5,5,0,0,0,1.07.83,5.42,5.42,0,0,0,1.26.53,5,5,0,0,0,1.4.19,5,5,0,0,0,1.4-.19,5.42,5.42,0,0,0,1.26-.53A5.3,5.3,0,0,0,24.72,9,5.71,5.71,0,0,0,25.55,8a5.42,5.42,0,0,0,.53-1.26,5.51,5.51,0,0,0,.19-1.41A5.45,5.45,0,0,0,26.08,3.88ZM23.72,6.51a3.09,3.09,0,0,1-.61,1,3,3,0,0,1-.94.67,2.85,2.85,0,0,1-2.38,0,2.91,2.91,0,0,1-1.58-1.67A3.35,3.35,0,0,1,18,5.29a3.39,3.39,0,0,1,.23-1.22,2.9,2.9,0,0,1,.62-1,3.08,3.08,0,0,1,1-.71,2.85,2.85,0,0,1,2.38,0,3.11,3.11,0,0,1,.94.71,3,3,0,0,1,.61,1,3.38,3.38,0,0,1,.22,1.22A3.34,3.34,0,0,1,23.72,6.51Z"/><path class="cls-2" d="M38.27,3.88a5.32,5.32,0,0,0-.53-1.27A5.33,5.33,0,0,0,34.59.19,5.1,5.1,0,0,0,33.18,0a5,5,0,0,0-1.4.19,5.32,5.32,0,0,0-2.33,1.35,5.78,5.78,0,0,0-.83,1.07,5.32,5.32,0,0,0-.53,1.27,5.45,5.45,0,0,0-.19,1.41,5.51,5.51,0,0,0,.19,1.41A5.42,5.42,0,0,0,28.62,8,5.71,5.71,0,0,0,29.45,9a5.3,5.3,0,0,0,1.07.83,5.6,5.6,0,0,0,1.26.53,5,5,0,0,0,1.4.19,5.1,5.1,0,0,0,1.41-.19,5.34,5.34,0,0,0,1.25-.53A5,5,0,0,0,36.91,9a5.66,5.66,0,0,0,.75-.93L37.73,8h0a5.42,5.42,0,0,0,.53-1.26,5.1,5.1,0,0,0,.19-1.41A5.05,5.05,0,0,0,38.27,3.88ZM35.91,6.51a3.09,3.09,0,0,1-.61,1,3,3,0,0,1-.94.67,2.72,2.72,0,0,1-1.18.26A2.81,2.81,0,0,1,32,8.18a3,3,0,0,1-1-.67,3.3,3.3,0,0,1-.62-1,3.35,3.35,0,0,1-.23-1.22,3.39,3.39,0,0,1,.23-1.22,3.23,3.23,0,0,1,.62-1,3.08,3.08,0,0,1,1-.71,2.81,2.81,0,0,1,1.2-.26,2.72,2.72,0,0,1,1.18.26,3.11,3.11,0,0,1,.94.71,3,3,0,0,1,.61,1,3.38,3.38,0,0,1,.22,1.22A3.34,3.34,0,0,1,35.91,6.51Z"/><path class="cls-2" d="M50.62,5a1.62,1.62,0,0,0,0-.22,5.94,5.94,0,0,0-.15-.86,6.16,6.16,0,0,0-.52-1.27,5.46,5.46,0,0,0-.8-1.06,5.15,5.15,0,0,0-1-.82A5,5,0,0,0,46.86.19,4.88,4.88,0,0,0,45.46,0h-.1A4.93,4.93,0,0,0,44,.19,5.42,5.42,0,0,0,42.7.72l-.3.19V.47a.48.48,0,0,0-.12-.33A.46.46,0,0,0,41.92,0H40.58a.51.51,0,0,0-.33.13.4.4,0,0,0-.17.34V14.21a.41.41,0,0,0,.17.34.56.56,0,0,0,.33.12h1.34a.45.45,0,0,0,.36-.13.48.48,0,0,0,.12-.33V9.66l.3.19a5,5,0,0,0,1.26.53,4.93,4.93,0,0,0,1.4.19h.37a5.33,5.33,0,0,0,1.13-.18,5.45,5.45,0,0,0,1.24-.53l.24-.15.2-.14a6,6,0,0,0,.6-.53,5.35,5.35,0,0,0,.79-1V8a4.92,4.92,0,0,0,.3-.61,6.38,6.38,0,0,0,.22-.66c0-.22.1-.44.13-.67s0-.24,0-.37a.61.61,0,0,0,0-.14,1.48,1.48,0,0,0,0-.21v0A3,3,0,0,0,50.62,5ZM44.17,2.37a3,3,0,0,1,1.19-.24,2.75,2.75,0,0,1,1.18.25,2.68,2.68,0,0,1,.72.46l.11.11.11.11a3.32,3.32,0,0,1,.61,1,3.38,3.38,0,0,1,.2.89c0,.11,0,.22,0,.33a3.29,3.29,0,0,1-.68,2l-.15.18a3.19,3.19,0,0,1-.94.68,2.94,2.94,0,0,1-1.18.25,3,3,0,0,1-1.21-.25,3.23,3.23,0,0,1-.95-.68,1.63,1.63,0,0,1-.17-.2,3.15,3.15,0,0,1-.46-.8,3.3,3.3,0,0,1-.22-1.22,3.83,3.83,0,0,1,0-.6,4.37,4.37,0,0,1,.17-.62,3.19,3.19,0,0,1,.63-1,2.08,2.08,0,0,1,.21-.21s0,0,0,0A3,3,0,0,1,44.17,2.37Z"/><path class="cls-2" d="M.06.67,0,.56A.43.43,0,0,1,0,.45a.38.38,0,0,1,0-.1A.31.31,0,0,1,.11.1.49.49,0,0,1,.45,0H2a.51.51,0,0,1,.52.38l.36,1c.14.39.29.81.45,1.24s.32.88.49,1.33.32.87.47,1.27l.4,1.06c.12.31.21.55.28.71.25-.7.57-1.6,1-2.7S6.74,1.91,7.3.37A.55.55,0,0,1,7.5.09.58.58,0,0,1,7.83,0H9.28a.58.58,0,0,1,.35.08.3.3,0,0,1,.1.22,1.49,1.49,0,0,1,0,.17c0,.06,0,.11,0,.15L8.8,2.72q.16.42.39.93c.15.34.3.7.47,1.07l.49,1.15c.16.38.31.76.46,1.13L11,6.07c.14-.35.28-.72.43-1.11s.3-.8.45-1.22.32-.82.47-1.22l.44-1.16c.13-.36.26-.69.37-1a.6.6,0,0,1,.19-.28A.5.5,0,0,1,13.62,0H15a.76.76,0,0,1,.37.07.27.27,0,0,1,.12.25.86.86,0,0,1,0,.15l0,.15-3.93,9.61a.75.75,0,0,1-.07.12.26.26,0,0,1-.1.11.53.53,0,0,1-.15.08.8.8,0,0,1-.23,0h-.72a.58.58,0,0,1-.4-.11.91.91,0,0,1-.17-.23c-.33-.8-.65-1.58-1-2.36l-1-2.36L5.82,10.23a1.24,1.24,0,0,1-.17.23.46.46,0,0,1-.35.11H4.53a.56.56,0,0,1-.4-.11A.57.57,0,0,1,4,10.23Z"/><path class="cls-2" d="M59.49,1.12a1,1,0,0,0-.24-.2C59,.76,58.83.63,58.64.51a4.1,4.1,0,0,0-.59-.3,4,4,0,0,0-.62-.16l-.31,0-.43,0a2.57,2.57,0,0,0-.82.12,2.28,2.28,0,0,0-.65.3,2.64,2.64,0,0,0-.51.43,2.25,2.25,0,0,0-.21.24V.49C54.5.16,54.33,0,54,0H52.64c-.34,0-.51.16-.51.49v9.58a.78.78,0,0,0,0,.22.31.31,0,0,0,.1.15.52.52,0,0,0,.4.13H54a.45.45,0,0,0,.2,0l.09,0a.34.34,0,0,0,.12-.12l0-.09v0a.48.48,0,0,0,0-.18V4.36a2,2,0,0,1,.21-.89,2,2,0,0,1,.5-.67,2.37,2.37,0,0,1,.68-.41,2.23,2.23,0,0,1,.76-.15,2,2,0,0,1,.81.15h0a2.19,2.19,0,0,1,.3.16h0l.47.27a.54.54,0,0,0,.25.06l.15,0a.37.37,0,0,0,.15-.13l.68-1.06a.53.53,0,0,0,.06-.14c0-.06,0-.1,0-.15A.4.4,0,0,0,59.49,1.12Z"/><path class="cls-1" d="M84.19,18.78l-1-1-.35-.33-.06-.06.11,0c.22.1.45.19.66.27a3.44,3.44,0,0,0,1.52.24,3.28,3.28,0,0,0,1-.29l.14-.08a3.1,3.1,0,0,0,1.08-1.05l.09-.15a3,3,0,0,0,.32-.88v0a2.78,2.78,0,0,0,.06-.58c0-.14,0-.28,0-.42l0-.17a.11.11,0,0,0,0-.05,2.79,2.79,0,0,0-.25-.72,3.1,3.1,0,0,0-.48-.7,3.35,3.35,0,0,0-.49-.43,3,3,0,0,0-1.75-.57,3.71,3.71,0,0,0-.47,0l-.15,0-.28.08a4.55,4.55,0,0,0-.82.46c-.19.12-3.35,2.63-3.35,2.63s-3.19-1.3-3.93-1.54a4.44,4.44,0,0,0-.92-.21,2.56,2.56,0,0,0-.48,0,3.11,3.11,0,0,0-1.67.82,3,3,0,0,0-1,2.33c0,.12,0,.23,0,.34s.06.29.1.43a1.66,1.66,0,0,0,.13.35,3.05,3.05,0,0,0,.5.81,0,0,0,0,1,0,0,3.27,3.27,0,0,0,.86.67,3,3,0,0,0,1.18.34h.23a1.79,1.79,0,0,0,.4,0h.07a1.92,1.92,0,0,0,.37-.11A3.32,3.32,0,0,0,76,19.1l0,0a5.82,5.82,0,0,0,.66-.44l0,0a4.7,4.7,0,0,0,.43-.35l-.12.21-.06.1-.37.65-1.32,2.3-1.72,3L75,24l.27.86.21.67,3.83-6.68,0,0,.33-.57.09-.16.25-.44.19.18.15.15.66.62L86,23.45l.49.46,0-.51,0-.58,0-.26L88,22.44ZM76,16.8c-.27.16-.54.32-.77.43a2.23,2.23,0,0,1-.34.13h-.38a1,1,0,0,1-.6-.38.9.9,0,0,1-.17-.44.81.81,0,0,1,0-.31v0a1,1,0,0,1,.63-.71.59.59,0,0,1,.19-.05h0l.36,0a13.18,13.18,0,0,1,1.47.37c.4.11.7.22.7.22l-.29.2h0l-.59.38Zm7.41-2.27c.27-.16.54-.32.76-.42l.34-.14h.06a1.08,1.08,0,0,1,.18,0h0a1,1,0,0,1,.3.07l.15.08a1,1,0,0,1,.43.68h0a1,1,0,0,1-.46,1,.61.61,0,0,1-.18.09l-.18.05h-.3l-.12,0A10.6,10.6,0,0,1,83,15.52l-.22-.06-.06,0-.38-.12-.08,0S82.8,14.89,83.38,14.53Z"/><path class="cls-2" d="M15.71,28.11V24.48h1.1L17.47,27l.65-2.48h1.1v3.63h-.68V25.25l-.72,2.86h-.71l-.72-2.86v2.86Z"/><path class="cls-2" d="M21,28.11V24.48h2.7v.61h-2v.81h1.83v.61H21.7v1h2v.61Z"/><path class="cls-2" d="M25.38,28.11V24.48h1.54a2.9,2.9,0,0,1,.85.09.85.85,0,0,1,.42.35,1,1,0,0,1,.16.58,1,1,0,0,1-.24.67,1.16,1.16,0,0,1-.72.34,1.54,1.54,0,0,1,.39.3,3.59,3.59,0,0,1,.42.6l.45.7h-.88l-.53-.79a4.81,4.81,0,0,0-.39-.53.44.44,0,0,0-.22-.15,1.14,1.14,0,0,0-.37,0h-.15v1.51ZM26.11,26h.54a2.59,2.59,0,0,0,.66-.05.41.41,0,0,0,.21-.15.51.51,0,0,0,.07-.28.44.44,0,0,0-.09-.29.45.45,0,0,0-.28-.15H26.11Z"/><path class="cls-2" d="M32.39,26.78l.71.22a1.6,1.6,0,0,1-.55.89,1.54,1.54,0,0,1-1,.29,1.57,1.57,0,0,1-1.19-.5,1.9,1.9,0,0,1-.47-1.35,2,2,0,0,1,.47-1.41,1.58,1.58,0,0,1,1.23-.51,1.54,1.54,0,0,1,1.09.4,1.49,1.49,0,0,1,.37.67l-.73.17a.72.72,0,0,0-.27-.44A.75.75,0,0,0,31.6,25a.85.85,0,0,0-.66.29,1.43,1.43,0,0,0-.25.94,1.53,1.53,0,0,0,.25,1,.81.81,0,0,0,.64.29.69.69,0,0,0,.5-.19A1,1,0,0,0,32.39,26.78Z"/><path class="cls-2" d="M34.75,28.11V24.48h.73v1.43h1.44V24.48h.74v3.63h-.74V26.52H35.48v1.59Z"/><path class="cls-2" d="M42.71,28.11h-.8l-.31-.82H40.14l-.3.82h-.78l1.42-3.63h.78Zm-1.35-1.43-.5-1.35-.49,1.35Z"/><path class="cls-2" d="M44.13,28.11V24.48h.71l1.49,2.43V24.48H47v3.63h-.74l-1.46-2.37v2.37Z"/><path class="cls-2" d="M48.8,24.48h1.34a2.5,2.5,0,0,1,.7.07,1.17,1.17,0,0,1,.54.33,1.52,1.52,0,0,1,.35.59,2.66,2.66,0,0,1,.12.86,2.46,2.46,0,0,1-.11.77,1.61,1.61,0,0,1-.39.65,1.36,1.36,0,0,1-.52.29,2.3,2.3,0,0,1-.65.07H48.8Zm.74.61V27.5h.54a2.34,2.34,0,0,0,.45,0,.62.62,0,0,0,.29-.15A.81.81,0,0,0,51,27a2.33,2.33,0,0,0,.07-.66,2.21,2.21,0,0,0-.07-.65.8.8,0,0,0-.21-.35.65.65,0,0,0-.34-.17,2.63,2.63,0,0,0-.6,0Z"/><path class="cls-2" d="M53.47,28.11V24.48h.73v3.63Z"/><path class="cls-2" d="M55.73,26.93l.72-.07a.86.86,0,0,0,.26.53.8.8,0,0,0,.53.17.78.78,0,0,0,.53-.15.43.43,0,0,0,.19-.35.33.33,0,0,0-.08-.22.58.58,0,0,0-.26-.16L57,26.52a2,2,0,0,1-.83-.36,1,1,0,0,1-.34-.73,1,1,0,0,1,.16-.52,1.07,1.07,0,0,1,.46-.37,1.84,1.84,0,0,1,.71-.13,1.53,1.53,0,0,1,1,.3,1.06,1.06,0,0,1,.36.81l-.73,0a.61.61,0,0,0-.2-.4.69.69,0,0,0-.47-.13.9.9,0,0,0-.5.13.3.3,0,0,0-.11.23.25.25,0,0,0,.11.22,1.74,1.74,0,0,0,.67.24,3.79,3.79,0,0,1,.79.26,1,1,0,0,1,.4.37,1.06,1.06,0,0,1,.15.58,1.12,1.12,0,0,1-.17.59,1,1,0,0,1-.5.4,2,2,0,0,1-.79.14,1.6,1.6,0,0,1-1.06-.32A1.41,1.41,0,0,1,55.73,26.93Z"/><path class="cls-2" d="M60.3,28.11V24.48H61v3.63Z"/><path class="cls-2" d="M62.76,28.11V24.48h.71L65,26.91V24.48h.69v3.63h-.74l-1.47-2.37v2.37Z"/><path class="cls-2" d="M69.13,26.78v-.62h1.58v1.45A2,2,0,0,1,70,28a2.46,2.46,0,0,1-.88.17,2,2,0,0,1-1-.24,1.59,1.59,0,0,1-.64-.69,2.22,2.22,0,0,1-.21-1,2.09,2.09,0,0,1,.24-1,1.57,1.57,0,0,1,.7-.67,1.87,1.87,0,0,1,.87-.19,1.76,1.76,0,0,1,1.06.29,1.34,1.34,0,0,1,.49.78l-.73.14a.75.75,0,0,0-.29-.42.84.84,0,0,0-.53-.16,1,1,0,0,0-.77.31,1.26,1.26,0,0,0-.28.9,1.36,1.36,0,0,0,.29,1,.94.94,0,0,0,.75.33,1.25,1.25,0,0,0,.46-.09,1.39,1.39,0,0,0,.4-.22v-.46Z"/></g></g></svg>