<svg xmlns="http://www.w3.org/2000/svg" viewBox="0 0 53.58 53.58"><defs><style>.cls-1{fill:#fff;}</style></defs><title>relojico</title><g id="Capa_2" data-name="Capa 2"><g id="Capa_1-2" data-name="Capa 1"><path class="cls-1" d="M45.73,7.85a26.79,26.79,0,1,0,0,37.88A26.77,26.77,0,0,0,45.73,7.85ZM26.79,51.9A25.11,25.11,0,1,1,51.9,26.79,25.13,25.13,0,0,1,26.79,51.9Z"/><path class="cls-1" d="M26.79,5A21.76,21.76,0,1,0,48.55,26.79,21.78,21.78,0,0,0,26.79,5Zm0,41.85A20.09,20.09,0,1,1,46.88,26.79,20.11,20.11,0,0,1,26.79,46.88Z"/><path class="cls-1" d="M27.63,24.42V15.91a.84.84,0,0,0-1.68,0v8.51a2.52,2.52,0,0,0-1.43,3.45l-4.18,4.19a.83.83,0,1,0,1.18,1.18l4.19-4.18a2.57,2.57,0,0,0,1.08.24,2.51,2.51,0,0,0,.84-4.88Zm-.84,3.21a.84.84,0,1,1,.84-.84A.85.85,0,0,1,26.79,27.63Z"/><path class="cls-1" d="M26.79,11.72a.84.84,0,0,0,.84-.83V9.21a.84.84,0,0,0-1.68,0v1.68A.84.84,0,0,0,26.79,11.72Z"/><path class="cls-1" d="M38.63,13.77,37.44,15a.84.84,0,1,0,1.19,1.19L39.81,15a.83.83,0,0,0-1.18-1.18Z"/><path class="cls-1" d="M44.37,26H42.69a.84.84,0,0,0,0,1.68h1.68a.84.84,0,0,0,0-1.68Z"/><path class="cls-1" d="M38.63,37.44a.84.84,0,1,0-1.19,1.19l1.19,1.18a.83.83,0,1,0,1.18-1.18Z"/><path class="cls-1" d="M26.79,41.86a.84.84,0,0,0-.84.83v1.68a.84.84,0,0,0,1.68,0V42.69A.84.84,0,0,0,26.79,41.86Z"/><path class="cls-1" d="M15,37.44l-1.18,1.19A.83.83,0,0,0,15,39.81l1.19-1.18A.84.84,0,1,0,15,37.44Z"/><path class="cls-1" d="M10.89,26H9.21a.84.84,0,0,0,0,1.68h1.68a.84.84,0,0,0,0-1.68Z"/><path class="cls-1" d="M15,13.77A.83.83,0,0,0,13.77,15L15,16.14a.86.86,0,0,0,.59.24.84.84,0,0,0,.6-1.43Z"/></g></g></svg>