<svg xmlns="http://www.w3.org/2000/svg" xmlns:xlink="http://www.w3.org/1999/xlink" viewBox="0 0 20.79 20.79"><defs><style>.cls-1{fill:none;}.cls-2{clip-path:url(#clip-path);}.cls-3,.cls-4{fill:#fff;}.cls-4{opacity:0.5;}</style><clipPath id="clip-path"><rect class="cls-1" width="20.79" height="20.79"/></clipPath></defs><title>sobreico</title><g id="Capa_2" data-name="Capa 2"><g id="Capa_1-2" data-name="Capa 1"><g class="cls-2"><path class="cls-3" d="M20.57,8.09,17.28,5.4V2.87a.61.61,0,0,0-.6-.61H13.45L10.85.14a.6.6,0,0,0-.77,0L7.45,2.26H4.11a.61.61,0,0,0-.6.61V5.44L.23,8.09A.6.6,0,0,0,0,8.56V20.18a.61.61,0,0,0,.61.61H20.18a.61.61,0,0,0,.61-.61V8.56a.62.62,0,0,0-.22-.47Zm-14.69,6L1.22,18.72V9.92Zm.91.81L10,17.74a.58.58,0,0,0,.4.16.59.59,0,0,0,.41-.16L14,14.89l4.71,4.68H2.09Zm8.12-.81,4.66-4.16v8.8Zm4.33-5.5-2,1.75V7ZM10.46,1.39l1.06.87H9.39Zm5.61,2.09v7.94l-5.68,5-5.67-5V3.48ZM3.51,10.33l-2-1.74L3.51,7Z"/></g><path class="cls-4" d="M6.6,5.89h7.59a.61.61,0,0,0,.61-.61.61.61,0,0,0-.61-.61H6.6A.61.61,0,0,0,6,5.28a.61.61,0,0,0,.61.61Z"/><path class="cls-4" d="M6.6,7.9H9.21a.6.6,0,0,0,.6-.61.61.61,0,0,0-.6-.61H6.6A.61.61,0,0,0,6,7.29a.61.61,0,0,0,.61.61Z"/><path class="cls-4" d="M14.19,6.68H11.58a.61.61,0,0,0-.6.61.6.6,0,0,0,.6.61h2.61a.61.61,0,0,0,.61-.61.61.61,0,0,0-.61-.61Z"/><path class="cls-4" d="M6.6,9.93H9.21a.6.6,0,0,0,.6-.61.61.61,0,0,0-.6-.61H6.6A.61.61,0,0,0,6,9.32a.61.61,0,0,0,.61.61Z"/><path class="cls-4" d="M14.19,8.71H11.58a.61.61,0,0,0-.6.61.6.6,0,0,0,.6.61h2.61a.61.61,0,0,0,.61-.61.61.61,0,0,0-.61-.61Z"/><path class="cls-4" d="M6.6,12h7.59a.61.61,0,0,0,.61-.61.61.61,0,0,0-.61-.61H6.6a.61.61,0,0,0-.61.61A.61.61,0,0,0,6.6,12Z"/></g></g></svg>