<svg xmlns="http://www.w3.org/2000/svg" viewBox="0 0 15.23 15.23"><defs><style>.cls-1{fill:#ead651;}.cls-2{fill:#919496;}</style></defs><title>ubicacionico</title><g id="Capa_2" data-name="Capa 2"><g id="Capa_1-2" data-name="Capa 1"><circle class="cls-1" cx="7.62" cy="7.62" r="7.62"/><path class="cls-2" d="M7.62,3A2.91,2.91,0,0,0,4.7,5.86c0,2,2.61,4.93,2.72,5.06a.27.27,0,0,0,.39,0c.11-.13,2.72-3.06,2.72-5.06A2.91,2.91,0,0,0,7.62,3Zm0,4.14A1.23,1.23,0,1,1,8.84,5.86,1.23,1.23,0,0,1,7.62,7.09Z"/><path class="cls-2" d="M5.57,12.31H9.66a.33.33,0,0,0,0-.66H5.57a.33.33,0,0,0,0,.66Z"/></g></g></svg>